<svg height="512pt" viewBox="0 0 512 512.02163" width="512pt" xmlns="http://www.w3.org/2000/svg"><path d="m473.875 401.003906c-15.789062 1.109375-38.65625-12.289062-57.003906-34.816406-5.179688-6.433594-9.777344-13.316406-13.738282-20.566406 2.472657-8.53125.347657-34.984375 3.414063-43.332032 8.789063 4.265626 25.164063 25.667969 37.195313 27.121094 2.472656 2.558594 5.460937 5.972656 7.679687 8.617188 18.355469 22.613281 26.71875 47.699218 22.453125 62.976562zm0 0" fill="#007900"/><path d="m502.628906 315.925781c-9.128906 10.496094-31.65625 16.382813-57.085937 13.738281l-1.792969-.253906c-11.199219-1.292968-22.117188-4.375-32.339844-9.132812 1.40625-3.941406-8.917968-13.011719-7.390625-16.921875 2.261719-5.820313 16.445313-6.460938 18.996094-12.175781 8.824219-1.21875 17.765625-1.363282 26.621094-.425782 25.429687 2.644532 46.167969 13.054688 52.992187 25.171875zm0 0" fill="#008a00"/><path d="m452.285156 235.457031c-5.292968 8.53125-10.242187 17.238281-14.847656 26.027344-5.207031 9.726563-9.984375 19.625-14.421875 29.695313-4.269531 9.554687-8.109375 19.285156-11.605469 29.097656-3.074218 8.363281-5.804687 16.8125-8.277344 25.34375-2.390624 7.851562-4.523437 15.789062-6.402343 23.894531-18.015625-1.324219-35.691407-5.621094-52.308594-12.714844-14.503906-6.210937-28.019531-14.519531-40.105469-24.660156v-.085937c-.253906-1.441407-.425781-2.894532-.511718-4.351563 24.792968-40.679687 42.96875-85.035156 53.84375-131.414063 5.871093.414063 11.714843 1.183594 17.496093 2.304688 2.984375.511719 5.972657 1.191406 8.957031 1.789062 9.105469 2.164063 17.988282 5.164063 26.539063 8.960938 15.140625 6.515625 29.183594 15.320312 41.644531 26.113281zm0 0" fill="#549414"/><path d="m426.683594 226.921875c-5.289063 8.535156-10.238282 17.238281-14.847656 26.027344-5.207032 9.726562-9.984376 19.628906-14.421876 29.695312-4.265624 9.558594-8.105468 19.285157-11.605468 29.101563-3.070313 8.359375-5.800782 16.808594-8.277344 25.34375-2.386719 7.847656-4.523438 15.785156-6.398438 23.890625-9-.683594-17.929687-2.082031-26.710937-4.179688-14.503906-6.210937-28.019531-14.519531-40.105469-24.660156v-.085937c-.253906-1.441407-.425781-2.894532-.511718-4.351563 24.792968-40.679687 42.96875-85.035156 53.84375-131.414063 5.871093.414063 11.714843 1.183594 17.496093 2.304688 2.984375.511719 5.972657 1.191406 8.957031 1.789062.34375.171876.597657.257813.941407.429688 15.136719 6.511719 29.183593 15.320312 41.640625 26.109375zm0 0" fill="#60a917"/><path d="m396.730469 369.515625c-25.628907 41.355469-44.359375 86.601563-55.464844 133.972656-12.964844-.964843-25.765625-3.457031-38.144531-7.425781 1.195312-.339844 2.476562-.679688 3.667968-1.109375-.082031-.339844-.082031-.679687-.167968-.9375-7.9375-47.53125-24.234375-55.039063-16.46875-103.082031-.769532-4.691406 9.042968-35.15625 12.796875-50.515625.796875-2.695313 1.257812-5.472657 1.367187-8.277344 12.085938 10.140625 25.601563 18.449219 40.105469 24.660156 7.824219 3.429688 15.933594 6.167969 24.234375 8.191407 9.214844 2.300781 18.605469 3.8125 28.074219 4.523437zm0 0" fill="#90ac00"/><path d="m371.132812 360.980469c-.855468 1.367187-1.621093 2.648437-2.476562 4.011719-24.371094 40.273437-42.253906 84.128906-52.992188 129.960937-3.070312-.253906-6.058593-.511719-9.042968-.9375-7.9375-47.53125-24.234375-55.039063-16.46875-103.082031-.769532-4.691406 9.042968-35.15625 12.796875-50.515625 12.980469 7.390625 26.945312 12.910156 41.472656 16.382812 8.78125 2.097657 17.710937 3.496094 26.710937 4.179688zm0 0" fill="#a4c400"/><path d="m305.511719 341.441406 1.277343 8.445313c-20.515624 6.8125-42.1875 9.453125-63.742187 7.765625-7.546875-.597656-15.046875-1.710938-22.441406-3.328125-.769531-2.730469-1.621094-5.375-2.304688-8.105469-1.535156-5.289062-2.816406-10.582031-4.097656-15.957031-2.046875-3.328125-4.09375-6.742188-5.972656-10.15625 3.667969-38.433594 2.378906-77.179688-3.839844-115.285157 12.445313-4.121093 25.335937-6.757812 38.398437-7.847656 21.644532-1.65625 43.398438 1.011719 64 7.847656-6.660156 40.628907-7.664062 81.980469-2.984374 122.882813.085937 1.457031.257812 2.910156.511718 4.351563v.085937c.339844 3.15625.765625 6.226563 1.195313 9.300781zm0 0" fill="#90ac00"/><path d="m279.910156 341.441406 1.28125 8.445313c-12.382812 4.015625-25.179687 6.621093-38.144531 7.765625-7.546875-.597656-15.046875-1.710938-22.441406-3.328125-.769531-2.730469-1.621094-5.375-2.304688-8.105469-1.535156-5.289062-2.816406-10.582031-4.097656-15.957031-2.046875-3.328125-4.09375-6.742188-5.972656-10.15625 3.667969-38.433594 2.378906-77.179688-3.839844-115.285157 12.445313-4.121093 25.335937-6.757812 38.398437-7.847656 13.066407 1.089844 25.957032 3.726563 38.402344 7.847656-6.664062 40.628907-7.667968 81.980469-2.988281 122.882813.085937 1.457031.257813 2.910156.511719 4.351563v.085937c.34375 3.15625.769531 6.226563 1.195312 9.300781zm0 0" fill="#a4c400"/><path d="m306.789062 494.953125c-1.191406.429687-2.472656.769531-3.667968 1.109375-19.484375 5.996094-39.921875 8.253906-60.246094 6.65625-10.882812-.894531-21.65625-2.839844-32.167969-5.800781 21.503907-6.484375-27.480469-46.421875-9.644531-61.695313-19.710938-31.914062 11.09375-30.378906 0-65.707031-.769531-2.304687 11.09375-7.9375 16.640625-11.863281 1.960937-1.363282 3.15625-2.558594 2.902344-3.328125 7.394531 1.617187 14.894531 2.730469 22.441406 3.328125 12.414063 1.054687 24.910156.566406 37.203125-1.449219 9.007812-1.375 17.882812-3.488281 26.539062-6.316406-.511718 3.074219-.9375 6.230469-1.363281 9.304687-6.457031 45.058594-6 90.839844 1.363281 135.761719zm0 0" fill="#549414"/><path d="m306.789062 204.820312c-8.617187-2.867187-17.46875-4.980468-26.453124-6.3125-12.410157-2-25.011719-2.515624-37.546876-1.535156-13.0625 1.089844-25.953124 3.726563-38.398437 7.847656.339844-1.875.597656-4.007812.851563-6.3125 3.636718-36.605468 5.289062-73.382812 4.949218-110.167968 0-1.703125 0-3.667969-.082031-5.375.230469.511718.519531 1 .851563 1.453125 7.167968 9.46875 29.609374-19.714844 55.808593-39.597657 4.117188-3.144531 8.65625-5.703124 13.480469-7.59375 13.3125-5.632812 24.152344-5.289062 26.625-14.078124-4.265625 50.34375-6.226562 143.699218-.085938 181.671874zm0 0" fill="#549414"/><path d="m281.191406 494.953125c-1.195312.429687-2.476562.769531-3.671875 1.109375-11.277343 3.449219-22.890625 5.679688-34.644531 6.65625-10.882812-.894531-21.65625-2.839844-32.167969-5.800781 21.503907-6.484375-27.480469-46.421875-9.644531-61.695313-19.710938-31.914062 11.09375-30.378906 0-65.707031-.769531-2.304687 11.09375-7.9375 16.640625-11.863281 8.433594.726562 16.910156.726562 25.34375 0 12.964844-1.144532 25.761719-3.75 38.144531-7.765625-.34375 2.050781-.683594 4.183593-.941406 6.316406-.167969 1.023437-.253906 1.960937-.425781 2.988281-6.457031 45.058594-5.996094 90.839844 1.367187 135.761719zm0 0" fill="#60a917"/><path d="m281.191406 204.820312c-12.445312-4.121093-25.335937-6.757812-38.402344-7.847656-12.53125-.980468-25.136718-.464844-37.546874 1.535156 3.636718-36.605468 5.289062-73.382812 4.949218-110.167968 0-1.703125 0-3.667969-.082031-5.375.230469.511718.519531 1 .851563 1.453125 7.167968 9.46875 29.609374-19.714844 55.808593-39.597657 4.117188-3.144531 8.65625-5.703124 13.480469-7.59375-3.324219 49.152344-4.519531 123.820313.085938 161.28125.257812 2.21875.511718 4.351563.855468 6.3125zm0 0" fill="#60a917"/><path d="m214.203125 330.261719c-19.21875 16.8125-42.238281 28.703125-67.070313 34.644531-1.621093.511719-3.242187.855469-4.863281 1.195312.339844-1.28125-1.707031.257813-4.183593 2.390626-3.839844 3.242187-8.875 7.933593-8.703126 6.144531.425782-4.523438-7.167968 2.984375-7.765624-.941407.042968-.078124.070312-.164062.085937-.253906.511719-2.5625 1.363281-22.785156 1.792969-23.554687-7.253906-8.277344.425781-22.101563-16.8125-24.488281-10.816406-31.464844-25.097656-61.632813-42.582032-89.941407 26.472657-22.910156 59.636719-36.648437 94.550782-39.167969 10.195312 43.535157 26.910156 85.277344 49.578125 123.816407.511719.941406 1.109375 1.964843 1.621093 2.902343 1.449219 2.476563 2.902344 4.863282 4.351563 7.253907zm0 0" fill="#549414"/><path d="m188.605469 338.796875c-12.398438 10.785156-26.386719 19.59375-41.472657 26.109375-2.949218 1.355469-5.96875 2.554688-9.046874 3.585938-5.332032 2.046874-10.808594 3.699218-16.382813 4.949218.511719-2.5625 1.363281-22.785156 1.792969-23.554687-7.253906-8.277344.425781-22.101563-16.8125-24.488281-10.816406-31.464844-25.097656-61.632813-42.582032-89.941407 12.554688-10.941406 26.75-19.839843 42.070313-26.367187 8.824219-2.167969 17.816406-3.59375 26.878906-4.269532 10.195313 43.535157 26.910157 85.28125 49.578125 123.820313.515625.9375 1.109375 1.960937 1.621094 2.902344 1.453125 2.472656 2.902344 4.863281 4.355469 7.253906zm0 0" fill="#60a917"/><path d="m269.671875 464.320312c-17.148437 14.886719-37.238281 25.996094-58.964844 32.597657-2.816406.851562-5.71875 1.621093-8.621093 2.304687 0 .085938-.085938 0-.085938 0-8.824219 2.164063-17.816406 3.59375-26.878906 4.265625-9.140625-38.980469-23.492188-76.550781-42.667969-111.703125 2.949219-5.617187 5.429687-11.46875 7.425781-17.492187.851563-2.472657 1.535156-4.863281 2.132813-7.253907.085937-.253906.171875-.597656.257812-.851562v-.085938c1.621094-.339843 3.242188-.683593 4.863281-1.195312 15.355469-3.574219 30.042969-9.566406 43.519532-17.75 8.355468-4.894531 16.238281-10.550781 23.550781-16.894531.683594 3.070312 1.453125 6.058593 2.21875 9.128906 1.28125 5.035156 2.730469 9.984375 4.183594 14.933594 11.320312 38.710937 27.824219 75.710937 49.066406 109.996093zm0 0" fill="#90ac00"/><path d="m158.652344 196.289062c-9.46875.707032-18.863282 2.222657-28.074219 4.523438-8.371094 2.011719-16.539063 4.78125-24.40625 8.277344-15.320313 6.527344-29.515625 15.425781-42.070313 26.367187-.683593-2.816406-1.363281-5.632812-2.132812-8.363281-11.292969-44.378906-29.308594-86.765625-53.417969-125.695312 12.570313-10.832032 26.695313-19.722657 41.898438-26.367188 16.746093-7.171875 34.566406-11.5 52.734375-12.800781 11.121094 47.390625 29.851562 92.664062 55.46875 134.058593zm0 0" fill="#90ac00"/><path d="m244.070312 472.855469c-12.558593 10.890625-26.71875 19.785156-41.984374 26.367187 0 .085938-.085938 0-.085938 0-8.824219 2.164063-17.816406 3.59375-26.878906 4.265625-9.140625-38.980469-23.492188-76.550781-42.667969-111.703125 2.949219-5.617187 5.429687-11.46875 7.425781-17.492187.851563-2.472657 1.535156-4.863281 2.132813-7.253907 1.75-.601562 3.460937-1.3125 5.121093-2.132812 15.085938-6.515625 29.074219-15.324219 41.472657-26.109375.597656 2.8125 1.277343 5.542969 2.046875 8.359375.015625.265625.074218.523438.171875.769531 1.277343 5.035157 2.730469 9.984375 4.179687 14.933594 11.320313 38.710937 27.824219 75.710937 49.066406 109.996094zm0 0" fill="#a4c400"/><path d="m133.050781 204.820312c-9.0625.675782-18.054687 2.101563-26.878906 4.269532-15.582031 3.660156-30.496094 9.734375-44.203125 18.003906-11.292969-44.378906-29.308594-86.765625-53.417969-125.695312 12.570313-10.832032 26.695313-19.722657 41.898438-26.367188 8.925781-2.097656 17.996093-3.523438 27.136719-4.269531 10.753906 45.855469 28.632812 89.738281 52.992187 130.050781.851563 1.363281 1.621094 2.644531 2.472656 4.007812zm0 0" fill="#a4c400"/><path d="m306.960938 22.804688c0 .171874 0 .257812-.085938.34375-3.242188 11.605468-16.554688 28.074218-35.496094 42.410156-6.617187 5.0625-13.636718 9.570312-20.992187 13.480468h-.085938c-18.347656 9.644532-34.132812 12.289063-39.339843 5.378907-.332032-.453125-.621094-.941407-.851563-1.453125v-.085938c-4.523437-9.640625 8.53125-29.949218 30.804687-47.957031 1.449219-1.195313 2.984376-2.386719 4.523438-3.582031 26.195312-19.882813 53.246094-28.332032 60.414062-18.945313 1.972657 3.109375 2.382813 6.957031 1.109376 10.410157zm0 0" fill="#dfc49c"/><path d="m281.359375 39.871094c0 .171875 0 .257812-.082031.34375-6.574219 15.507812-17.253906 28.933594-30.890625 38.824218h-.085938c-18.347656 9.644532-34.132812 12.289063-39.339843 5.378907-.332032-.453125-.621094-.941407-.851563-1.453125v-.085938c-4.523437-9.640625 8.53125-29.949218 30.804687-47.957031 18.347657-9.640625 34.132813-12.285156 39.335938-5.460937 1.976562 3.109374 2.386719 6.957031 1.109375 10.410156zm0 0" fill="#ffe0b2"/><path d="m142.269531 366.101562v.085938c-2.257812 8.886719-5.550781 17.480469-9.816406 25.597656-4.921875 9.214844-10.722656 17.929688-17.320313 26.027344-22.527343 27.820312-50.6875 44.289062-70.144531 42.921875-5.292969-18.769531 5.035157-49.660156 27.648438-77.480469 3.070312-3.753906 6.144531-7.253906 9.386719-10.582031 28.757812-3.414063 52.308593-14.761719 61.609374-28.414063.949219 7.300782.484376 14.71875-1.363281 21.84375zm0 0" fill="#007900"/><path d="m143.632812 344.257812c-.425781.765626.511719-.769531 0 0-9.300781 13.652344-32.851562 25-61.609374 28.414063l-2.21875.257813c-31.316407 3.242187-58.964844-4.011719-70.230469-16.898438 8.449219-15.019531 33.964843-27.730469 65.28125-30.976562 10.585937-1.132813 21.269531-1.015626 31.828125.34375 14.175781 1.667968 27.28125 8.359374 36.949218 18.859374zm0 0" fill="#008a00"/><path d="m396.742188 378.046875c-.222657 0-.453126 0-.675782 0-35.734375-2.539063-69.753906-16.300781-97.203125-39.320313-1.953125-1.621093-3.082031-4.027343-3.082031-6.5625.003906-.425781.035156-.851562.09375-1.269531-.996094-2.492187-.761719-5.3125.632812-7.605469 24.296876-39.921874 42.132813-83.4375 52.839844-128.929687.964844-4.074219 4.726563-6.863281 8.90625-6.605469 6.214844.441406 12.394532 1.257813 18.511719 2.441406 12.863281 2.257813 25.40625 6.066407 37.355469 11.339844 15.886718 6.863282 30.625 16.113282 43.710937 27.4375 3.199219 2.734375 3.925781 7.402344 1.707031 10.980469-5.070312 8.167969-9.960937 16.742187-14.507812 25.488281-17.824219 33.476563-31.253906 69.113282-39.953125 106.027344-.910156 3.867188-4.367187 6.59375-8.335937 6.578125zm-83.421876-49.613281c22.179688 17.542968 48.804688 28.570312 76.890626 31.855468 9.042968-35.746093 22.367187-70.269531 39.691406-102.816406 3.574218-6.828125 7.335937-13.558594 11.238281-20.113281-10.347656-8.171875-21.722656-14.953125-33.835937-20.164063-10.769532-4.765624-22.074219-8.203124-33.671876-10.242187-3.183593-.613281-6.308593-1.109375-9.445312-1.492187-10.910156 43.238281-28.042969 84.664062-50.867188 122.972656zm0 0"/><path d="m341.273438 512.023438c-.222657 0-.445313 0-.664063 0-13.632813-1.019532-27.09375-3.644532-40.109375-7.816407-3.050781-.808593-5.410156-3.238281-6.125-6.316406-.71875-3.078125.324219-6.296875 2.707031-8.371094 2.386719-2.074219 5.71875-2.664062 8.667969-1.527343 9.445312 3.023437 19.164062 5.140624 29.011719 6.3125 11.503906-45.644532 29.957031-89.25 54.71875-129.285157 2.515625-3.917969 7.710937-5.089843 11.667969-2.636719 3.957031 2.449219 5.21875 7.621094 2.835937 11.621094-25.109375 40.582032-43.484375 84.960938-54.417969 131.414063-.894531 3.859375-4.328125 6.59375-8.292968 6.605469zm0 0"/><path d="m255.4375 366.714844c-12.34375-.003906-24.648438-1.367188-36.695312-4.0625-3.035157-.597656-5.511719-2.796875-6.464844-5.742188-.953125-2.945312-.238282-6.175781 1.871094-8.441406 2.113281-2.269531 5.285156-3.214844 8.289062-2.472656 24.726562 5.5 50.429688 4.761718 74.796875-2.148438-.511719-3.566406-.992187-7.117187-1.402344-10.734375-.269531-1.613281-.457031-3.234375-.554687-4.867187-4.429688-39.046875-3.777344-78.503906 1.9375-117.382813-27.222656-7.695312-56.050782-7.695312-83.277344 0 5.335938 36.425781 6.28125 73.359375 2.828125 110.011719-.449219 4.691406-4.617187 8.132812-9.308594 7.683594-4.691406-.445313-8.128906-4.613282-7.683593-9.304688 3.570312-37.710937 2.304687-75.722656-3.769532-113.109375-.675781-4.15625 1.785156-8.183593 5.792969-9.480469 34.949219-11.617187 72.714844-11.617187 107.664063 0 4.011718 1.296876 6.472656 5.328126 5.792968 9.488282-6.511718 39.851562-7.503906 80.410156-2.941406 120.535156.074219 1.28125.222656 2.5625.441406 3.832031.050782.304688.085938.613281.113282.917969.65625 5.746094 1.484374 11.324219 2.386718 17.070312.660156 4.148438-1.800781 8.160157-5.800781 9.453126-17.433594 5.730468-35.664063 8.6875-54.015625 8.753906zm0 0"/><path d="m255.378906 511.738281c-15.894531-.023437-31.703125-2.25-46.984375-6.613281-4.40625-1.378906-6.914062-6.015625-5.660156-10.457031 1.253906-4.445313 5.816406-7.082031 10.292969-5.960938 27.5 7.902344 56.664062 7.964844 84.199218.179688-6.796874-46.570313-6.410156-93.910157 1.140626-140.363281.488281-3.011719 2.546874-5.53125 5.398437-6.617188 2.847656-1.082031 6.0625-.5625 8.425781 1.367188 2.363282 1.925781 3.519532 4.96875 3.03125 7.980468-7.671875 47.136719-7.671875 95.199219 0 142.335938.644532 4.066406-1.699218 8.011718-5.582031 9.386718-1.175781.410157-2.40625.769532-3.601563 1.101563-16.417968 5.027344-33.488281 7.609375-50.660156 7.660156zm0 0"/><path d="m306.789062 213.355469c-4.179687-.003907-7.742187-3.039063-8.414062-7.167969-6.320312-39.132812-4.265625-133.394531 0-183.75.117188-1.164062.425781-2.300781.914062-3.359375 1.90625-3.890625 6.421876-5.734375 10.507813-4.292969 4.082031 1.445313 6.4375 5.71875 5.476563 9.941406-4.027344 49.441407-6.023438 141.839844-.058594 178.730469.359375 2.234375-.179688 4.519531-1.507813 6.355469-1.324219 1.835938-3.324219 3.070312-5.558593 3.429688-.449219.078124-.902344.113281-1.359376.113281zm0 0"/><path d="m204.40625 213.355469c-2.503906.003906-4.882812-1.097657-6.507812-3.003907-1.621094-1.90625-2.324219-4.433593-1.921876-6.902343 4.210938-38.167969 6.109376-76.558594 5.691407-114.953125 0-1.707032 0-3.277344-.078125-4.839844-.152344-3.046875 1.335937-5.945312 3.898437-7.601562 2.566407-1.65625 5.816407-1.820313 8.535157-.429688 2.714843 1.394531 4.484374 4.128906 4.636718 7.179688.09375 1.84375.09375 3.695312.09375 5.535156.445313 39.363281-1.527344 78.71875-5.914062 117.839844-.667969 4.136718-4.242188 7.179687-8.433594 7.175781zm0 0"/><path d="m142.269531 374.675781c-4.714843 0-8.535156-3.820312-8.535156-8.53125.003906-4.070312 2.847656-7.585937 6.828125-8.441406 22.871094-4.703125 44.304688-14.753906 62.546875-29.328125-22.84375-38.277344-40.003906-79.667969-50.941406-122.878906-28.105469 3.242187-54.746094 14.277344-76.914063 31.855468 16.078125 26.988282 29.328125 55.566407 39.546875 85.273438 1.46875 4.441406-.914062 9.238281-5.339843 10.753906-4.425782 1.515625-9.246094-.816406-10.808594-5.226562-10.636719-30.863282-24.660156-60.457032-41.8125-88.234375-2.199219-3.570313-1.476563-8.214844 1.707031-10.945313 27.789063-24.1875 62.703125-38.660156 99.457031-41.21875 4.183594-.3125 7.976563 2.460938 8.941406 6.546875 10.984376 46.453125 29.390626 90.828125 54.511719 131.414063 2.210938 3.574218 1.484375 8.226562-1.707031 10.964844-21.402344 18.632812-47.167969 31.550781-74.90625 37.546874-.828125.285157-1.699219.4375-2.574219.449219zm0 0"/><path d="m175.113281 512.023438c-3.957031-.003907-7.394531-2.722657-8.304687-6.574219-8.976563-38.226563-23.039063-75.078125-41.8125-109.566407-1.492188-2.679687-1.433594-5.949218.152344-8.574218 1.589843-2.621094 4.460937-4.191406 7.527343-4.113282 3.0625.082032 5.847657 1.800782 7.296875 4.503907 18.320313 33.625 32.332032 69.425781 41.703125 106.554687 28.085938-3.292968 54.707031-14.3125 76.902344-31.835937-24.105469-40.453125-41.875-84.359375-52.6875-130.195313-1.082031-4.585937 1.757813-9.183594 6.347656-10.269531 4.585938-1.082031 9.183594 1.757813 10.269531 6.347656 10.949219 46.484375 29.324219 90.902344 54.417969 131.539063 2.207031 3.578125 1.484375 8.230468-1.707031 10.964844-27.820312 24.113281-62.695312 38.574218-99.414062 41.21875zm0 0"/><path d="m64.058594 243.972656c-3.953125 0-7.390625-2.71875-8.300782-6.570312-10.957031-46.480469-29.347656-90.886719-54.46875-131.5-2.214843-3.578125-1.492187-8.234375 1.707032-10.972656 27.851562-24.105469 62.753906-38.5625 99.496094-41.207032 4.1875-.289062 7.976562 2.476563 8.980468 6.554688 10.953125 46.472656 29.339844 90.875 54.449219 131.488281 1.710937 2.59375 1.875 5.914063.429687 8.664063-1.441406 2.75-4.269531 4.5-7.375 4.5625-3.105468.066406-6.003906-1.5625-7.5625-4.25-24.757812-40.039063-43.230468-83.640626-54.773437-129.28125-28.097656 3.3125-54.726563 14.339843-76.9375 31.863281 24.101563 40.441406 41.863281 84.332031 52.667969 130.152343 1.066406 4.578126-1.773438 9.160157-6.347656 10.238282-.640626.167968-1.300782.253906-1.964844.257812zm0 0"/><path d="m221.03125 96.867188c-6.488281.492187-12.804688-2.222657-16.90625-7.269532-4.101562-5.421875-6.679688-15.445312 4.363281-32.429687 8.691407-12.570313 19.425781-23.601563 31.757813-32.628907 12.027344-9.449218 25.546875-16.820312 39.996094-21.820312 19.378906-6.058594 28.324218-.855469 32.429687 4.566406 4.101563 5.417969 6.679687 15.433594-4.363281 32.425782-8.699219 12.574218-19.433594 23.605468-31.769532 32.640624-12.027343 9.429688-25.539062 16.789063-39.988281 21.777344-5.003906 1.683594-10.238281 2.609375-15.519531 2.738282zm75.015625-79.957032c-6.828125 0-23.894531 4.792969-45.484375 21.1875-26.238281 19.890625-34.191406 37.871094-32.773438 41.285156 2.78125 2.105469 22.183594-.710937 48.441407-20.609374 26.242187-19.890626 34.195312-37.820313 32.785156-41.285157-.914063-.46875-1.945313-.671875-2.96875-.578125zm0 0"/><path d="m47.273438 469.355469c-.972657 0-1.925782 0-2.890626-.101563-3.59375-.257812-6.636718-2.738281-7.613281-6.207031-6.246093-22.183594 5.230469-55.625 29.234375-85.179687 3.414063-4.1875 6.675782-7.824219 9.910156-11.152344 3.296876-3.375 8.710938-3.4375 12.085938-.140625 3.375 3.300781 3.441406 8.710937.140625 12.089843-2.890625 2.960938-5.8125 6.246094-8.910156 10.035157-19.984375 24.582031-27.628907 48.382812-27.007813 63.144531 14.601563-2.398438 36.320313-14.753906 56.277344-39.398438 6.257812-7.664062 11.75-15.917968 16.410156-24.644531 3.863282-7.355469 6.871094-15.132812 8.960938-23.175781.019531-.15625.046875-.3125.085937-.46875 1.597657-6.046875 2.023438-12.34375 1.253907-18.550781-.59375-4.578125 2.554687-8.796875 7.113281-9.527344 4.558593-.730469 8.867187 2.296875 9.730469 6.828125 1.117187 8.242188.652343 16.617188-1.371094 24.679688 0 .207031-.078125.410156-.121094.605468-2.402344 9.554688-5.9375 18.789063-10.53125 27.503906-5.179688 9.730469-11.296875 18.9375-18.261719 27.484376-22.988281 28.382812-51.855469 46.175781-74.496093 46.175781zm0 0"/><path d="m65.042969 382.238281c-27.144531 0-50.503907-7.578125-61.867188-20.632812-2.367187-2.71875-2.769531-6.628907-1.007812-9.773438 10.042969-17.917969 38.230469-31.785156 71.824219-35.257812 33.597656-3.472657 64 4.265625 77.527343 19.804687 2.363281 2.71875 2.765625 6.628906 1.003907 9.773438-10.042969 17.917968-38.234376 31.792968-71.824219 35.265625-5.203125.539062-10.429688.8125-15.65625.820312zm-43.835938-27.433593c17.679688 9.429687 37.957031 12.816406 57.742188 9.640624 20.011719-.949218 39.164062-8.414062 54.539062-21.265624-17.683593-9.421876-37.960937-12.804688-57.746093-9.632813-20.011719.953125-39.160157 8.417969-54.535157 21.257813zm0 0"/><path d="m472.039062 409.621094c-18.773437 0-42.742187-14.652344-61.789062-38.023438-5.558594-6.847656-10.46875-14.199218-14.660156-21.957031-2.210938-4.164063-.625-9.335937 3.539062-11.546875 4.167969-2.207031 9.335938-.625 11.546875 3.542969 3.671875 6.804687 7.976563 13.246093 12.859375 19.242187 10.664063 14.601563 25.679688 25.453125 42.886719 30.992188-1.90625-18.027344-9.472656-34.988282-21.613281-48.449219-2.253906-2.714844-4.632813-5.421875-7.101563-7.886719-3.339843-3.335937-3.34375-8.75-.007812-12.089844 3.339843-3.34375 8.75-3.347656 12.09375-.011718 2.816406 2.835937 5.5625 5.976562 8.21875 9.125 19.828125 24.445312 29.265625 52.179687 24.078125 70.714844-.96875 3.472656-4.015625 5.964843-7.609375 6.21875-.804688.078124-1.613281.128906-2.441407.128906zm0 0"/><path d="m457.574219 338.796875c-4.316407-.003906-8.628907-.230469-12.917969-.675781-12.84375-1.191406-25.378906-4.625-37.035156-10.144532-2.753906-1.34375-4.578125-4.054687-4.78125-7.113281-.199219-3.054687 1.25-5.984375 3.804687-7.675781 2.554688-1.691406 5.820313-1.882812 8.554688-.503906 9.832031 4.625 20.398437 7.484375 31.222656 8.457031 15.039063 2.191406 30.386719-.066406 44.160156-6.488281-12.132812-9.117188-26.667969-14.488282-41.8125-15.453125-8.148437-.898438-16.378906-.769531-24.492187.386719-3.046875.511718-6.132813-.660157-8.070313-3.066407s-2.421875-5.675781-1.265625-8.539062c1.15625-2.867188 3.769532-4.886719 6.835938-5.273438 9.539062-1.378906 19.214844-1.535156 28.792968-.472656 27.664063 2.878906 51.027344 14.449219 59.5 29.46875 1.773438 3.144531 1.371094 7.0625-.996093 9.785156-9.53125 10.984375-28.972657 17.308594-51.5 17.308594zm0 0"/></svg>